<?xml version="1.0" encoding="UTF-8"?>
<svg width="1600" height="900" viewBox="0 0 1600 900" xmlns="http://www.w3.org/2000/svg">
  <defs>
    <linearGradient id="bgGradient" x1="0%" y1="0%" x2="100%" y2="100%">
      <stop offset="0%" style="stop-color:#121232;stop-opacity:1" />
      <stop offset="100%" style="stop-color:#1E1E48;stop-opacity:1" />
    </linearGradient>
    
    <radialGradient id="starGlow" cx="50%" cy="50%" r="50%" fx="50%" fy="50%">
      <stop offset="0%" style="stop-color:#FFFFFF;stop-opacity:1" />
      <stop offset="100%" style="stop-color:#FFFFFF;stop-opacity:0" />
    </radialGradient>
    
    <filter id="glow" x="-50%" y="-50%" width="200%" height="200%">
      <feGaussianBlur stdDeviation="2" result="blur" />
      <feComposite in="SourceGraphic" in2="blur" operator="over" />
    </filter>
    
    <filter id="distantGlow" x="-100%" y="-100%" width="300%" height="300%">
      <feGaussianBlur stdDeviation="4" result="blur" />
      <feComposite in="SourceGraphic" in2="blur" operator="over" />
    </filter>
  </defs>
  
  <!-- Background -->
  <rect width="1600" height="900" fill="url(#bgGradient)" />
  
  <!-- Nebulas and cosmic dust -->
  <g opacity="0.1">
    <circle cx="300" cy="200" r="250" fill="#4A148C" />
    <circle cx="1200" cy="600" r="300" fill="#2979FF" />
    <circle cx="900" cy="200" r="200" fill="#8E24AA" />
  </g>
  
  <!-- Grid lines -->
  <g stroke="#FFFFFF" stroke-opacity="0.05">
    <!-- Horizontal lines -->
    <line x1="0" y1="100" x2="1600" y2="100" />
    <line x1="0" y1="300" x2="1600" y2="300" />
    <line x1="0" y1="500" x2="1600" y2="500" />
    <line x1="0" y1="700" x2="1600" y2="700" />
    
    <!-- Vertical lines -->
    <line x1="200" y1="0" x2="200" y2="900" />
    <line x1="400" y1="0" x2="400" y2="900" />
    <line x1="600" y1="0" x2="600" y2="900" />
    <line x1="800" y1="0" x2="800" y2="900" />
    <line x1="1000" y1="0" x2="1000" y2="900" />
    <line x1="1200" y1="0" x2="1200" y2="900" />
    <line x1="1400" y1="0" x2="1400" y2="900" />
  </g>
  
  <!-- Stars layer 1 (bright stars) -->
  <g filter="url(#glow)">
    <circle cx="100" cy="150" r="1.2" fill="#FFFFFF" />
    <circle cx="350" cy="230" r="1.5" fill="#FFFFFF" />
    <circle cx="580" cy="120" r="1.3" fill="#FFFFFF" />
    <circle cx="750" cy="300" r="1.4" fill="#FFFFFF" />
    <circle cx="900" cy="180" r="1.5" fill="#FFFFFF" />
    <circle cx="1050" cy="380" r="1.2" fill="#FFFFFF" />
    <circle cx="1200" cy="220" r="1.3" fill="#FFFFFF" />
    <circle cx="1400" cy="280" r="1.5" fill="#FFFFFF" />
    <circle cx="1500" cy="150" r="1.2" fill="#FFFFFF" />
    <circle cx="200" cy="450" r="1.4" fill="#FFFFFF" />
    <circle cx="400" cy="500" r="1.3" fill="#FFFFFF" />
    <circle cx="600" cy="600" r="1.5" fill="#FFFFFF" />
    <circle cx="800" cy="550" r="1.2" fill="#FFFFFF" />
    <circle cx="1000" cy="650" r="1.4" fill="#FFFFFF" />
    <circle cx="1200" cy="700" r="1.3" fill="#FFFFFF" />
    <circle cx="1400" cy="600" r="1.5" fill="#FFFFFF" />
    <circle cx="250" cy="780" r="1.2" fill="#FFFFFF" />
    <circle cx="450" cy="800" r="1.4" fill="#FFFFFF" />
    <circle cx="650" cy="750" r="1.3" fill="#FFFFFF" />
    <circle cx="850" cy="830" r="1.5" fill="#FFFFFF" />
    <circle cx="1050" cy="780" r="1.2" fill="#FFFFFF" />
    <circle cx="1250" cy="820" r="1.4" fill="#FFFFFF" />
    <circle cx="1450" cy="750" r="1.3" fill="#FFFFFF" />
  </g>
  
  <!-- Stars layer 2 (medium stars) -->
  <g>
    <circle cx="150" cy="100" r="0.8" fill="#FFFFFF" opacity="0.8" />
    <circle cx="300" cy="180" r="0.9" fill="#FFFFFF" opacity="0.8" />
    <circle cx="420" cy="90" r="0.8" fill="#FFFFFF" opacity="0.8" />
    <circle cx="550" cy="200" r="0.9" fill="#FFFFFF" opacity="0.8" />
    <circle cx="680" cy="150" r="0.8" fill="#FFFFFF" opacity="0.8" />
    <circle cx="800" cy="120" r="0.9" fill="#FFFFFF" opacity="0.8" />
    <circle cx="950" cy="250" r="0.8" fill="#FFFFFF" opacity="0.8" />
    <circle cx="1100" cy="180" r="0.9" fill="#FFFFFF" opacity="0.8" />
    <circle cx="1250" cy="150" r="0.8" fill="#FFFFFF" opacity="0.8" />
    <circle cx="1380" cy="220" r="0.9" fill="#FFFFFF" opacity="0.8" />
    <circle cx="1520" cy="90" r="0.8" fill="#FFFFFF" opacity="0.8" />
    <circle cx="120" cy="380" r="0.9" fill="#FFFFFF" opacity="0.8" />
    <circle cx="250" cy="420" r="0.8" fill="#FFFFFF" opacity="0.8" />
    <circle cx="380" cy="400" r="0.9" fill="#FFFFFF" opacity="0.8" />
    <circle cx="520" cy="450" r="0.8" fill="#FFFFFF" opacity="0.8" />
    <circle cx="650" cy="380" r="0.9" fill="#FFFFFF" opacity="0.8" />
    <circle cx="780" cy="420" r="0.8" fill="#FFFFFF" opacity="0.8" />
    <circle cx="920" cy="400" r="0.9" fill="#FFFFFF" opacity="0.8" />
    <circle cx="1050" cy="450" r="0.8" fill="#FFFFFF" opacity="0.8" />
    <circle cx="1180" cy="400" r="0.9" fill="#FFFFFF" opacity="0.8" />
    <circle cx="1320" cy="380" r="0.8" fill="#FFFFFF" opacity="0.8" />
    <circle cx="1450" cy="430" r="0.9" fill="#FFFFFF" opacity="0.8" />
    <circle cx="180" cy="600" r="0.8" fill="#FFFFFF" opacity="0.8" />
    <circle cx="320" cy="650" r="0.9" fill="#FFFFFF" opacity="0.8" />
    <circle cx="450" cy="620" r="0.8" fill="#FFFFFF" opacity="0.8" />
    <circle cx="580" cy="680" r="0.9" fill="#FFFFFF" opacity="0.8" />
    <circle cx="720" cy="650" r="0.8" fill="#FFFFFF" opacity="0.8" />
    <circle cx="850" cy="620" r="0.9" fill="#FFFFFF" opacity="0.8" />
    <circle cx="980" cy="680" r="0.8" fill="#FFFFFF" opacity="0.8" />
    <circle cx="1120" cy="650" r="0.9" fill="#FFFFFF" opacity="0.8" />
    <circle cx="1250" cy="620" r="0.8" fill="#FFFFFF" opacity="0.8" />
    <circle cx="1380" cy="680" r="0.9" fill="#FFFFFF" opacity="0.8" />
    <circle cx="1520" cy="640" r="0.8" fill="#FFFFFF" opacity="0.8" />
  </g>
  
  <!-- Stars layer 3 (distant stars) -->
  <g>
    <circle cx="50" cy="50" r="0.5" fill="#FFFFFF" opacity="0.6" />
    <circle cx="120" cy="80" r="0.5" fill="#FFFFFF" opacity="0.6" />
    <circle cx="200" cy="40" r="0.5" fill="#FFFFFF" opacity="0.6" />
    <circle cx="280" cy="90" r="0.5" fill="#FFFFFF" opacity="0.6" />
    <circle cx="350" cy="60" r="0.5" fill="#FFFFFF" opacity="0.6" />
    <circle cx="430" cy="30" r="0.5" fill="#FFFFFF" opacity="0.6" />
    <circle cx="500" cy="80" r="0.5" fill="#FFFFFF" opacity="0.6" />
    <circle cx="580" cy="50" r="0.5" fill="#FFFFFF" opacity="0.6" />
    <circle cx="650" cy="90" r="0.5" fill="#FFFFFF" opacity="0.6" />
    <circle cx="730" cy="40" r="0.5" fill="#FFFFFF" opacity="0.6" />
    <circle cx="800" cy="70" r="0.5" fill="#FFFFFF" opacity="0.6" />
    <circle cx="880" cy="30" r="0.5" fill="#FFFFFF" opacity="0.6" />
    <circle cx="950" cy="90" r="0.5" fill="#FFFFFF" opacity="0.6" />
    <circle cx="1020" cy="60" r="0.5" fill="#FFFFFF" opacity="0.6" />
    <circle cx="1100" cy="40" r="0.5" fill="#FFFFFF" opacity="0.6" />
    <circle cx="1170" cy="80" r="0.5" fill="#FFFFFF" opacity="0.6" />
    <circle cx="1250" cy="50" r="0.5" fill="#FFFFFF" opacity="0.6" />
    <circle cx="1320" cy="70" r="0.5" fill="#FFFFFF" opacity="0.6" />
    <circle cx="1400" cy="30" r="0.5" fill="#FFFFFF" opacity="0.6" />
    <circle cx="1470" cy="90" r="0.5" fill="#FFFFFF" opacity="0.6" />
    <circle cx="1550" cy="60" r="0.5" fill="#FFFFFF" opacity="0.6" />
    <!-- Add more stars throughout the SVG -->
    <!-- Row 2 -->
    <circle cx="30" cy="150" r="0.5" fill="#FFFFFF" opacity="0.6" />
    <circle cx="100" cy="180" r="0.5" fill="#FFFFFF" opacity="0.6" />
    <circle cx="170" cy="140" r="0.5" fill="#FFFFFF" opacity="0.6" />
    <circle cx="240" cy="190" r="0.5" fill="#FFFFFF" opacity="0.6" />
    <circle cx="310" cy="160" r="0.5" fill="#FFFFFF" opacity="0.6" />
    <circle cx="380" cy="130" r="0.5" fill="#FFFFFF" opacity="0.6" />
    <circle cx="450" cy="180" r="0.5" fill="#FFFFFF" opacity="0.6" />
    <circle cx="520" cy="150" r="0.5" fill="#FFFFFF" opacity="0.6" />
    <circle cx="590" cy="190" r="0.5" fill="#FFFFFF" opacity="0.6" />
    <circle cx="660" cy="140" r="0.5" fill="#FFFFFF" opacity="0.6" />
    <circle cx="730" cy="170" r="0.5" fill="#FFFFFF" opacity="0.6" />
    <circle cx="800" cy="130" r="0.5" fill="#FFFFFF" opacity="0.6" />
    <circle cx="870" cy="190" r="0.5" fill="#FFFFFF" opacity="0.6" />
    <circle cx="940" cy="160" r="0.5" fill="#FFFFFF" opacity="0.6" />
    <circle cx="1010" cy="140" r="0.5" fill="#FFFFFF" opacity="0.6" />
    <circle cx="1080" cy="180" r="0.5" fill="#FFFFFF" opacity="0.6" />
    <circle cx="1150" cy="150" r="0.5" fill="#FFFFFF" opacity="0.6" />
    <circle cx="1220" cy="170" r="0.5" fill="#FFFFFF" opacity="0.6" />
    <circle cx="1290" cy="130" r="0.5" fill="#FFFFFF" opacity="0.6" />
    <circle cx="1360" cy="190" r="0.5" fill="#FFFFFF" opacity="0.6" />
    <circle cx="1430" cy="160" r="0.5" fill="#FFFFFF" opacity="0.6" />
    <circle cx="1500" cy="140" r="0.5" fill="#FFFFFF" opacity="0.6" />
    <circle cx="1570" cy="180" r="0.5" fill="#FFFFFF" opacity="0.6" />
  </g>
  
  <!-- Bright stars with glow -->
  <g filter="url(#distantGlow)">
    <circle cx="250" cy="100" r="2" fill="url(#starGlow)" />
    <circle cx="700" cy="200" r="2.5" fill="url(#starGlow)" />
    <circle cx="1100" cy="150" r="2" fill="url(#starGlow)" />
    <circle cx="1400" cy="300" r="2.5" fill="url(#starGlow)" />
    <circle cx="300" cy="500" r="2" fill="url(#starGlow)" />
    <circle cx="800" cy="600" r="2.5" fill="url(#starGlow)" />
    <circle cx="1300" cy="550" r="2" fill="url(#starGlow)" />
    <circle cx="500" cy="800" r="2.5" fill="url(#starGlow)" />
    <circle cx="1000" cy="750" r="2" fill="url(#starGlow)" />
    <circle cx="1500" cy="700" r="2.5" fill="url(#starGlow)" />
  </g>
</svg>